<?xml version="1.0" encoding="utf-8"?>
<!-- Generator: Adobe Illustrator 26.3.1, SVG Export Plug-In . SVG Version: 6.00 Build 0)  -->
<svg version="1.1" id="Camada_1" xmlns="http://www.w3.org/2000/svg" xmlns:xlink="http://www.w3.org/1999/xlink" x="0px" y="0px"
	 viewBox="0 0 1080 400" style="enable-background:new 0 0 1080 400;" xml:space="preserve">
<style type="text/css">
	.st0{fill:#FFFFFF;}
	.st1{fill:#009C3A;}
	.st2{fill:#FBE200;}
	.st3{fill:#3C3C3B;}
	.st4{fill:#004F9E;}
</style>
<g>
	<g>
		<path class="st0" d="M334.04,148.71c-5.11-9.28-11.78-16.85-20.01-22.71c-4.66-3.31-9.52-5.73-14.59-7.32
			c3.32-1.41,6.51-3.21,9.54-5.47c6.5-4.87,11.69-11.02,15.58-18.45c3.88-7.43,5.83-15.43,5.83-24.02c0-14.39-3.31-26.25-9.92-35.59
			c-6.62-9.34-15.96-16.27-28.02-20.8s-26.28-6.79-42.64-6.79c-12.3,0-25.12,0.15-38.47,0.43c-13.34,0.29-26.92,0.61-40.73,0.96
			l-2.44,2.26v234.27l2.44,2.26c14.62,0.35,28.98,0.66,43.08,0.96c14.1,0.29,27.88,0.44,41.34,0.44c17.99,0,33.45-2.55,46.38-7.66
			c12.94-5.1,22.89-12.82,29.85-23.15c6.96-10.33,10.44-23.38,10.44-39.16C341.7,168.14,339.14,157.99,334.04,148.71z M234.83,45.41
			c4.99,0.06,9.11,0.09,12.36,0.09c8.24,0,14.62,1.42,19.14,4.26c4.53,2.84,7.69,6.44,9.49,10.79c1.8,4.35,2.7,8.91,2.7,13.66
			c0,4.64-0.9,9.23-2.7,13.75c-1.8,4.53-4.96,8.24-9.49,11.14c-4.53,2.9-10.96,4.35-19.32,4.35h-26.46V45.15
			C225.08,45.26,229.84,45.35,234.83,45.41z M286.7,188.56c-1.05,4.06-2.9,7.83-5.57,11.31c-2.67,3.48-6.38,6.3-11.14,8.44
			c-4.76,2.15-10.85,3.22-18.28,3.22c-4.06,0-8.82,0-14.27,0c-5.45,0-11.08,0.12-16.88,0.35v-70.32h30.63
			c9.75,0,17.29,1.86,22.63,5.57c5.34,3.71,9.08,8.27,11.23,13.66c2.15,5.4,3.22,10.71,3.22,15.93
			C288.26,180.56,287.74,184.5,286.7,188.56z"/>
		<path class="st0" d="M478.33,72.04c-3.25-0.52-7.37-0.78-12.36-0.78c-10.21,0-18.65,2.32-25.32,6.96
			c-6.67,4.64-11.95,10.82-15.84,18.54c-0.96,1.91-1.86,3.87-2.71,5.88c-2.1-5.09-4.67-9.71-7.74-13.8
			c-7.83-10.44-19.47-16.42-34.89-17.92c-3.25,2.55-6.5,6.5-9.75,11.83c-3.25,5.34-5.4,10.33-6.44,14.97
			c2.9,2.21,5.83,6.24,8.79,12.1c2.96,5.86,4.44,13.9,4.44,24.11v113.31c7.89,1.27,16.53,1.92,25.93,1.92
			c9.63,0,18.28-0.64,25.93-1.92V137.9c1.89-3,3.89-5.68,6.01-7.99c3.07-3.36,6.55-5.98,10.44-7.83c3.89-1.85,8.27-2.79,13.14-2.79
			c3.02,0.35,5.94,0.73,8.79,1.13c2.84,0.41,5.71,1.13,8.62,2.17c4.41-7.19,7.66-15.52,9.75-24.98c2.09-9.45,3.13-17.26,3.13-23.41
			C484.88,73.28,481.58,72.56,478.33,72.04z"/>
		<path class="st0" d="M681.79,148.71c-5.11-9.28-11.78-16.85-20.01-22.71c-4.66-3.31-9.52-5.73-14.59-7.32
			c3.32-1.41,6.51-3.21,9.54-5.47c6.5-4.87,11.69-11.02,15.58-18.45c3.88-7.43,5.83-15.43,5.83-24.02c0-14.39-3.31-26.25-9.92-35.59
			c-6.62-9.34-15.96-16.27-28.02-20.8s-26.28-6.79-42.64-6.79c-12.3,0-25.12,0.15-38.47,0.43c-13.34,0.29-26.92,0.61-40.73,0.96
			l-2.44,2.26v234.27l2.44,2.26c14.62,0.35,28.98,0.66,43.08,0.96c14.1,0.29,27.88,0.44,41.34,0.44c17.99,0,33.45-2.55,46.38-7.66
			c12.94-5.1,22.89-12.82,29.85-23.15c6.96-10.33,10.44-23.38,10.44-39.16C689.45,168.14,686.89,157.99,681.79,148.71z
			 M582.58,45.41c4.99,0.06,9.11,0.09,12.36,0.09c8.24,0,14.62,1.42,19.14,4.26c4.53,2.84,7.69,6.44,9.49,10.79
			c1.8,4.35,2.7,8.91,2.7,13.66c0,4.64-0.9,9.23-2.7,13.75c-1.8,4.53-4.96,8.24-9.49,11.14c-4.53,2.9-10.96,4.35-19.32,4.35h-26.46
			V45.15C572.83,45.26,577.59,45.35,582.58,45.41z M634.45,188.56c-1.05,4.06-2.9,7.83-5.57,11.31c-2.67,3.48-6.38,6.3-11.14,8.44
			c-4.76,2.15-10.85,3.22-18.28,3.22c-4.06,0-8.82,0-14.27,0c-5.45,0-11.08,0.12-16.88,0.35v-70.32h30.63
			c9.75,0,17.29,1.86,22.63,5.57c5.34,3.71,9.08,8.27,11.23,13.66c2.15,5.4,3.22,10.71,3.22,15.93
			C636.01,180.56,635.49,184.5,634.45,188.56z"/>
		<g>
			<path class="st0" d="M736.09,48.54c4.76,0.99,9.4,1.48,13.92,1.48c4.41,0,9.02-0.49,13.83-1.48c4.82-0.98,8.5-2.23,11.05-3.74
				c2.67-6.27,4-12.82,4-19.67c0-3.02-0.35-6.29-1.05-9.83s-1.68-6.76-2.96-9.66c-2.55-1.51-6.24-2.78-11.05-3.83
				c-4.82-1.05-9.43-1.57-13.83-1.57c-4.53,0-9.08,0.52-13.66,1.57c-4.59,1.05-8.33,2.32-11.23,3.83c-2.67,6.04-4,12.53-4,19.49
				c0,6.85,1.33,13.4,4,19.67C727.67,46.31,731.33,47.56,736.09,48.54z"/>
			<path class="st0" d="M773.68,83.18c-6.61-7.25-15.49-10.88-26.63-10.88h-7.31c-3.6,0-8.09,0.15-13.49,0.44
				c-5.39,0.29-10.64,0.73-15.75,1.31c-0.81,3.02-1.39,6.18-1.74,9.49c-0.35,3.31-0.52,6.41-0.52,9.31c0,6.04,0.75,11.9,2.26,17.58
				h4.87c6.15,0,10.41,1.86,12.79,5.57c2.38,3.72,3.57,8.47,3.57,14.27v116.96c7.89,1.27,16.53,1.92,25.93,1.92
				c9.63,0,18.28-0.64,25.93-1.92V112.5C783.61,100.2,780.3,90.43,773.68,83.18z"/>
		</g>
		<path class="st0" d="M924.07,110.41c1.51-5.92,2.26-12.18,2.26-18.8c0-6.03-0.75-12.13-2.26-18.28l-41.6,0.7V23.56l-2.26-2.26
			h-20.19c-10.21,0-17.47,2.32-21.76,6.96c-4.3,4.64-6.44,12.76-6.44,24.37v21.21l-26.98-0.5c-1.51,6.15-2.26,12.24-2.26,18.28
			c0,6.61,0.75,12.88,2.26,18.8l26.98-0.51v92.41c0,15.9,3.65,27.65,10.97,35.24c7.31,7.6,18.56,11.4,33.77,11.4
			c6.96,0,14.5-0.35,22.62-1.05c8.12-0.7,15.32-1.45,21.58-2.26c0.58-1.74,0.93-3.65,1.05-5.74c0.11-2.09,0.17-4.06,0.17-5.92
			c0-8.47-1.34-16.71-4-24.71h-20.19c-5.46,0-9.37-1.42-11.75-4.26c-2.38-2.84-3.57-6.82-3.57-11.92v-83.35L924.07,110.41z"/>
	</g>
	<g>
		<path class="st0" d="M309.49,360.12c-1.6-3.36-3.93-6.36-6.97-9.01c-3.05-2.64-6.71-4.84-11-6.6l-16.59-6.91
			c-3.03-1.26-5.18-2.61-6.47-4.03c-1.29-1.42-1.93-3.08-1.93-4.97c0-2.08,0.91-4.04,2.74-5.89c1.83-1.85,4.75-2.77,8.77-2.77
			c3.61,0,7.69,0.68,12.26,2.03c4.56,1.35,8.58,2.87,12.05,4.54c1.99-1.85,3.61-4.16,4.88-6.94c1.26-2.78,1.98-5.63,2.17-8.56
			c-3.52-1.85-8.06-3.59-13.61-5.21c-5.55-1.63-11.49-2.44-17.81-2.44c-6.09,0-11.61,1.18-16.55,3.52
			c-4.94,2.34-8.86,5.62-11.75,9.82c-2.89,4.2-4.34,9.07-4.34,14.63c0,6.41,1.82,11.56,5.45,15.44c3.63,3.88,8.25,6.99,13.85,9.34
			l16.32,6.84c3.84,1.58,6.31,3.33,7.42,5.25s1.66,3.73,1.66,5.45c0,2.39-0.95,4.57-2.84,6.53c-1.89,1.96-4.92,2.95-9.07,2.95
			c-4.79,0-9.59-0.9-14.42-2.71c-4.83-1.8-9.16-3.86-13-6.16c-1.99,1.72-3.76,4-5.32,6.84c-1.56,2.84-2.47,5.73-2.74,8.67
			c4.96,3.21,10.5,5.68,16.62,7.42c6.12,1.73,11.92,2.61,17.43,2.61c7.85,0,14.39-1.26,19.6-3.79c5.21-2.53,9.12-5.96,11.71-10.29
			c2.6-4.33,3.89-9.21,3.89-14.62C311.89,367.12,311.09,363.48,309.49,360.12z"/>
		<g>
			<path class="st0" d="M339.79,320.51c1.85,0.38,3.66,0.58,5.42,0.58c1.71,0,3.51-0.19,5.38-0.58c1.87-0.38,3.31-0.87,4.3-1.45
				c1.04-2.44,1.56-4.99,1.56-7.65c0-1.17-0.14-2.45-0.41-3.82c-0.27-1.38-0.65-2.63-1.15-3.76c-0.99-0.59-2.43-1.08-4.3-1.49
				c-1.88-0.41-3.67-0.61-5.38-0.61c-1.76,0-3.53,0.2-5.31,0.61c-1.78,0.4-3.24,0.9-4.37,1.49c-1.04,2.35-1.56,4.87-1.56,7.58
				c0,2.66,0.52,5.21,1.56,7.65C336.51,319.64,337.93,320.13,339.79,320.51z"/>
			<path class="st0" d="M354.41,333.98c-2.57-2.82-6.03-4.23-10.36-4.23h-2.84c-1.4,0-3.15,0.06-5.25,0.17
				c-2.1,0.11-4.14,0.28-6.13,0.51c-0.32,1.17-0.54,2.41-0.68,3.69c-0.13,1.29-0.2,2.5-0.2,3.62c0,2.35,0.29,4.63,0.88,6.84h1.89
				c2.39,0,4.05,0.72,4.98,2.17c0.93,1.44,1.39,3.29,1.39,5.55v45.5c3.07,0.5,6.43,0.74,10.09,0.74c3.74,0,7.11-0.25,10.09-0.74
				v-52.41C358.27,340.61,356.99,336.8,354.41,333.98z"/>
		</g>
		<path class="st0" d="M430.09,364.28c-3.41-3.43-7.68-6.05-12.83-7.86l-8.33-3.05c-1.99-0.72-3.43-1.51-4.34-2.37
			c-0.9-0.86-1.35-1.92-1.35-3.18c0-1.36,0.54-2.49,1.62-3.42c1.08-0.93,2.62-1.39,4.61-1.39c3.2,0,6.44,0.52,9.71,1.55
			c3.27,1.04,6.28,2.17,9.04,3.39c1.63-1.22,2.99-3.27,4.1-6.16c1.11-2.89,1.59-5.51,1.45-7.85c-2.89-1.44-6.66-2.74-11.31-3.89
			c-4.65-1.15-9.05-1.73-13.2-1.73c-5.19,0-9.74,0.9-13.64,2.71c-3.9,1.81-6.93,4.36-9.07,7.65c-2.14,3.3-3.22,7.2-3.22,11.72
			c0,3.61,0.76,6.7,2.27,9.27c1.51,2.57,3.55,4.74,6.13,6.5c2.57,1.76,5.44,3.23,8.6,4.4l7.58,2.77c2.25,0.81,3.89,1.75,4.91,2.81
			c1.02,1.06,1.52,2.29,1.52,3.69c0,1.53-0.72,2.8-2.17,3.79c-1.45,0.99-3.54,1.49-6.3,1.49c-3.16,0-6.34-0.56-9.54-1.69
			c-3.21-1.13-6.28-2.46-9.21-3.99c-1.54,1.53-2.86,3.64-3.96,6.33c-1.11,2.69-1.71,5.14-1.79,7.35c3.16,1.81,6.91,3.36,11.24,4.67
			c4.33,1.31,8.89,1.96,13.68,1.96c9.03,0,16.1-1.96,21.23-5.89c5.12-3.93,7.68-9.23,7.68-15.91
			C435.2,372.27,433.5,367.71,430.09,364.28z"/>
		<path class="st0" d="M500.23,344.58c0.59-2.3,0.88-4.74,0.88-7.31c0-2.35-0.29-4.72-0.88-7.11l-16.18,0.27v-19.63l-0.88-0.88
			h-7.85c-3.97,0-6.79,0.9-8.46,2.71c-1.67,1.81-2.51,4.97-2.51,9.48v8.25l-10.49-0.19c-0.59,2.39-0.88,4.76-0.88,7.11
			c0,2.57,0.29,5.01,0.88,7.31l10.49-0.2v35.95c0,6.19,1.42,10.76,4.27,13.71c2.84,2.96,7.22,4.44,13.13,4.44
			c2.71,0,5.64-0.14,8.8-0.41c3.16-0.27,5.96-0.56,8.4-0.88c0.22-0.68,0.36-1.42,0.41-2.24c0.04-0.81,0.07-1.58,0.07-2.3
			c0-3.3-0.52-6.5-1.56-9.61H490c-2.12,0-3.64-0.55-4.57-1.66c-0.93-1.11-1.39-2.65-1.39-4.64v-32.43L500.23,344.58z"/>
		<path class="st0" d="M574.15,342.41c-2.21-4.34-5.41-7.77-9.58-10.29c-4.18-2.53-9.24-3.79-15.2-3.79
			c-7.04,0-12.76,1.6-17.16,4.81c-4.4,3.2-7.64,7.53-9.71,12.97c-2.08,5.44-3.12,11.57-3.12,18.38c0,4.51,0.46,8.87,1.39,13.07
			c0.92,4.2,2.5,7.97,4.74,11.31c2.24,3.34,5.28,5.99,9.14,7.96c3.86,1.96,8.72,2.95,14.59,2.95c4.78,0,9.53-0.67,14.26-2
			c4.71-1.33,8.77-3.24,12.15-5.72c-0.32-1.99-0.92-4.11-1.83-6.36c-0.9-2.26-2.1-4.13-3.59-5.62c-2.75,1.18-5.63,2.18-8.63,3.01
			c-3,0.84-6.04,1.25-9.11,1.25c-3.7,0-6.47-0.85-8.3-2.54c-1.83-1.69-3.04-3.92-3.62-6.67c-0.31-1.44-0.52-2.96-0.67-4.53h35.88
			c0.63-2.21,1.07-4.29,1.32-6.23c0.25-1.94,0.37-4.36,0.37-7.25C577.46,351.64,576.36,346.74,574.15,342.41z M558.84,356.63H539.8
			c0.24-4.09,0.92-7.31,2.08-9.58c1.46-2.87,3.94-4.3,7.41-4.3c2.3,0,4.16,0.56,5.55,1.69c1.4,1.13,2.42,2.62,3.05,4.47
			c0.63,1.85,0.95,3.9,0.95,6.16V356.63z"/>
		<path class="st0" d="M696.06,388.55c-0.47-2.28-0.71-4.73-0.71-7.35v-30.6c0-4.11-0.68-7.78-2.03-11
			c-1.35-3.23-3.36-5.79-6.03-7.69c-2.66-1.9-5.98-2.84-9.95-2.84c-3.11,0-6.24,0.66-9.38,2c-3.14,1.33-6.08,3.08-8.84,5.25
			c-0.96,0.75-1.81,1.54-2.68,2.33c-1.41-2.82-3.34-5.11-5.85-6.8c-2.75-1.85-6.09-2.78-10.02-2.78c-3.21,0-6.28,0.72-9.21,2.17
			c-2.93,1.44-5.68,3.29-8.23,5.55c-0.4,0.35-0.76,0.73-1.15,1.09c-0.49-1.74-1.23-3.26-2.2-4.54c-1.99-2.62-4.92-3.92-8.8-3.92
			h-7.52l-0.95,0.94v67.44c3.11,0.5,6.5,0.74,10.15,0.74c3.75,0,7.11-0.25,10.09-0.74v-45.56c1.09-1.02,2.22-1.97,3.42-2.78
			c2.19-1.49,4.28-2.24,6.26-2.24c1.62,0,3.09,0.67,4.4,2c1.31,1.33,1.97,3.87,1.97,7.62v40.96c3.11,0.5,6.48,0.74,10.09,0.74
			c3.84,0,7.2-0.25,10.09-0.74v-45.34c1.16-1.12,2.34-2.15,3.59-3.01c2.17-1.49,4.16-2.24,5.96-2.24c1.62,0,3.12,0.64,4.5,1.93
			c1.38,1.29,2.07,3.8,2.07,7.55v29.66c0,4.01,0.8,7.1,2.4,9.24c1.6,2.15,4.41,3.22,8.43,3.22c2.53,0,4.89-0.4,7.08-1.22
			c2.19-0.81,4.03-1.83,5.52-3.05C697.36,392.83,696.54,390.83,696.06,388.55z"/>
		<path class="st0" d="M777.05,384.69c-0.59-1.51-0.88-3.31-0.88-5.38v-27.56c0-5.64-1.15-10.14-3.45-13.51
			c-2.3-3.36-5.27-5.79-8.9-7.28c-3.64-1.49-7.46-2.23-11.48-2.23c-2.93,0-6.21,0.25-9.82,0.74c-3.61,0.5-7.24,1.19-10.87,2.1
			c-3.63,0.9-6.94,1.97-9.92,3.18c0.22,2.48,0.75,5.03,1.59,7.65c0.84,2.62,1.97,4.74,3.42,6.36c3.52-1.08,7.01-2.09,10.46-3.01
			c3.45-0.92,6.67-1.39,9.65-1.39c3.11,0,5.43,0.74,6.94,2.23c1.51,1.49,2.27,3.77,2.27,6.84v2.84c-0.76-0.06-1.49-0.13-2.3-0.16
			c-3.12-0.11-5.73-0.17-7.85-0.17c-4.65,0-9.01,0.82-13.07,2.47c-4.06,1.65-7.34,4.2-9.85,7.65c-2.5,3.45-3.76,7.86-3.76,13.24
			c0,3.25,0.75,6.44,2.24,9.58c1.49,3.14,3.74,5.73,6.77,7.79c3.02,2.05,6.86,3.08,11.51,3.08c4.02,0,7.53-0.68,10.56-2.03
			c3.02-1.36,5.68-3.04,7.95-5.05c0.49-0.43,0.92-0.87,1.39-1.3c1.21,1.78,2.67,3.4,4.58,4.72c2.46,1.72,5.6,2.64,9.44,2.78
			c1.31-0.99,2.59-2.52,3.83-4.57c1.24-2.06,2.06-3.98,2.47-5.79C778.61,387.48,777.64,386.21,777.05,384.69z M745.5,384.8
			c-2.08,0-3.7-0.65-4.88-1.96c-1.17-1.31-1.76-2.93-1.76-4.88c0-2.66,0.72-4.83,2.16-6.5c1.45-1.67,3.75-2.51,6.91-2.51
			c1.94,0,4.29,0.05,7.04,0.13c0.38,0.01,0.71,0.06,1.08,0.08v11.13c-0.63,0.55-1.28,1.06-1.96,1.52
			C751.16,383.8,748.3,384.8,745.5,384.8z"/>
		<path class="st0" d="M849.01,364.28c-3.41-3.43-7.68-6.05-12.83-7.86l-8.33-3.05c-1.99-0.72-3.43-1.51-4.34-2.37
			c-0.9-0.86-1.35-1.92-1.35-3.18c0-1.36,0.54-2.49,1.62-3.42c1.08-0.93,2.62-1.39,4.61-1.39c3.2,0,6.44,0.52,9.71,1.55
			c3.27,1.04,6.28,2.17,9.04,3.39c1.63-1.22,2.99-3.27,4.1-6.16c1.11-2.89,1.59-5.51,1.46-7.85c-2.89-1.44-6.66-2.74-11.31-3.89
			c-4.65-1.15-9.05-1.73-13.2-1.73c-5.19,0-9.74,0.9-13.64,2.71c-3.9,1.81-6.93,4.36-9.07,7.65c-2.14,3.3-3.22,7.2-3.22,11.72
			c0,3.61,0.76,6.7,2.27,9.27c1.51,2.57,3.55,4.74,6.13,6.5c2.57,1.76,5.44,3.23,8.6,4.4l7.58,2.77c2.25,0.81,3.89,1.75,4.91,2.81
			c1.02,1.06,1.52,2.29,1.52,3.69c0,1.53-0.72,2.8-2.17,3.79c-1.45,0.99-3.54,1.49-6.3,1.49c-3.16,0-6.34-0.56-9.54-1.69
			c-3.21-1.13-6.28-2.46-9.21-3.99c-1.54,1.53-2.86,3.64-3.96,6.33c-1.1,2.69-1.71,5.14-1.79,7.35c3.16,1.81,6.9,3.36,11.24,4.67
			c4.33,1.31,8.89,1.96,13.68,1.96c9.03,0,16.1-1.96,21.23-5.89c5.12-3.93,7.68-9.23,7.68-15.91
			C854.13,372.27,852.42,367.71,849.01,364.28z"/>
	</g>
	<path class="st1" d="M104.07,157.33l-25.95-16.47c-9.24-5.87-9.24-19.36,0-25.22l25.95-16.47c11.52-7.31,14.94-22.58,7.63-34.1
		c-7.31-11.52-22.58-14.94-34.1-7.63L18.22,95.12c-24.29,15.41-24.29,50.86,0,66.27l59.37,37.67c11.52,7.31,26.79,3.9,34.1-7.63
		C119.01,179.91,115.59,164.65,104.07,157.33z"/>
	<path class="st2" d="M975.93,99.18l25.95,16.47c9.24,5.87,9.24,19.36,0,25.22l-25.95,16.47c-11.52,7.31-14.94,22.58-7.63,34.1
		c7.31,11.52,22.58,14.94,34.1,7.63l59.37-37.67c24.29-15.41,24.29-50.86,0-66.27l-59.37-37.67c-11.52-7.31-26.79-3.9-34.1,7.63
		C960.99,76.6,964.41,91.87,975.93,99.18z"/>
</g>
</svg>
